Coordinates
version=1
nRows=10
nColumns=40
inDegrees=yes

Units are S.I. units (second, meters, Newtons, ...)
Angles are in degrees.

endheader
time	pelvis_tilt	pelvis_list	pelvis_rotation	pelvis_tx	pelvis_ty	pelvis_tz	hip_flexion_r	hip_adduction_r	hip_rotation_r	knee_angle_r	knee_angle_r_beta	ankle_angle_r	subtalar_angle_r	mtp_angle_r	hip_flexion_l	hip_adduction_l	hip_rotation_l	knee_angle_l	knee_angle_l_beta	ankle_angle_l	subtalar_angle_l	mtp_angle_l	lumbar_extension	lumbar_bending	lumbar_rotation	arm_flex_r	arm_add_r	arm_rot_r	elbow_flex_r	pro_sup_r	wrist_flex_r	wrist_dev_r	arm_flex_l	arm_add_l	arm_rot_l	elbow_flex_l	pro_sup_l	wrist_flex_l	wrist_dev_l
     29.98000000	     -5.45962149	     -5.43520364	      1.24189388	      1.01906176	      0.93150519	      0.39001430	     34.91826487	     -6.49996150	     -6.36522890	     72.77192920	     72.77192920	     -5.73168572	    -17.63390650	      2.83019827	     16.98445286	     -5.80521767	     -6.81695423	     22.15879089	     22.15879089	     12.61702272	    -13.04805014	      1.61515453	    -12.30651456	      5.78820699	      2.68799364	      4.34956278	    -12.44695071	     -7.70540829	     37.91279870	     46.06348852	      0.00000000	      0.00000000	      4.91990738	    -12.44091409	     -6.66890289	     68.94151601	     47.08738002	      0.00000000	      0.00000000
     29.99207143	     -5.52115215	     -5.34775311	      1.02955066	      1.01872360	      0.93232689	      0.38942985	     36.25495736	     -6.45862700	     -6.55186978	     71.64488894	     71.64488894	     -5.09958216	    -17.63729930	      2.67090491	     16.10758396	     -5.66696499	     -7.08088721	     21.45039568	     21.45039568	     12.81701621	    -12.86434630	      1.69774027	    -12.41520791	      5.77694990	      2.64604540	      3.15078216	    -12.66466001	     -7.71984406	     37.08037474	     46.08806743	      0.00000000	      0.00000000	      6.02644471	    -12.84238102	     -6.96876994	     70.02637386	     47.13556615	      0.00000000	      0.00000000
     30.00414286	     -5.35354260	     -5.12001256	      0.68955942	      1.01860445	      0.93358183	      0.38887000	     37.20775834	     -6.41883596	     -6.52879848	     70.25423266	     70.25423266	     -4.58607236	    -17.59613321	      2.43888089	     14.70302257	     -5.34854127	     -7.47779018	     20.27687423	     20.27687423	     12.90369712	    -12.67244671	      1.90364728	    -12.88356816	      5.53492853	      3.54492497	      1.79694606	    -13.10256180	     -7.80655889	     35.16075907	     46.15941921	      0.00000000	      0.00000000	      7.21294504	    -12.51868941	     -7.13111555	     72.76719564	     47.20971647	      0.00000000	      0.00000000
     30.01621429	     -5.32765081	     -5.01976935	      0.50957584	      1.01831394	      0.93433468	      0.38836755	     38.14171005	     -6.33328795	     -6.76728676	     68.60149013	     68.60149013	     -4.22086189	    -17.51279235	      1.96654159	     13.72284949	     -5.16567958	     -7.66531755	     19.49674647	     19.49674647	     12.89873313	    -12.65194768	      1.66602511	    -13.12852203	      5.41153508	      2.65321463	      2.50108821	    -12.80029372	     -8.70225495	     30.83936264	     46.38937026	      0.00000000	      0.00000000	      6.82094838	    -13.47492193	     -7.64577124	     77.05595719	     47.36876981	      0.00000000	      0.00000000
     30.02828571	     -5.29045096	     -4.94190770	      0.32876073	      1.01800868	      0.93511626	      0.38789945	     38.89948813	     -6.16331272	     -6.99730504	     66.61840843	     66.61840843	     -3.83540554	    -17.32601434	      2.07378869	     12.69054411	     -5.01178236	     -7.92445380	     18.62952141	     18.62952141	     13.03579690	    -12.36765984	      1.79192268	    -13.38914328	      5.38498007	      2.98513992	      1.36346386	    -13.10384975	     -8.84131962	     29.62368215	     46.43971074	      0.00000000	      0.00000000	      8.03980964	    -13.34673802	     -8.14468020	     78.68088341	     47.44871987	      0.00000000	      0.00000000
     30.04035714	     -5.28787757	     -4.86935247	      0.21211857	      1.01768685	      0.93562642	      0.38751795	     39.52735384	     -6.00940551	     -7.32022668	     64.31752931	     64.31752931	     -3.48368976	    -16.98864814	      2.16612799	     11.77641447	     -4.86425391	     -8.11826352	     17.87890650	     17.87890650	     13.18661240	    -12.10714377	      1.83761931	    -13.61183014	      5.33553683	      3.06108932	      0.47533101	    -13.28774673	     -9.09591921	     28.29103628	     46.50647803	      0.00000000	      0.00000000	      8.96082472	    -13.46838341	     -8.50688328	     80.80873015	     47.53001771	      0.00000000	      0.00000000
     30.05242857	     -5.31328425	     -4.81980216	      0.15652151	      1.01737168	      0.93594144	      0.38719764	     39.97602774	     -5.84607347	     -7.73265765	     61.62200751	     61.62200751	     -3.18882155	    -16.48767296	      2.18210984	     10.94372212	     -4.75087862	     -8.28178967	     17.19565723	     17.19565723	     13.33337479	    -11.79395887	      1.81959357	    -13.77954231	      5.33420324	      2.95688670	     -0.28467523	    -13.42974345	     -9.40077007	     27.13248417	     46.57245060	      0.00000000	      0.00000000	      9.69353956	    -13.67199228	     -8.81626353	     82.99269064	     47.60818029	      0.00000000	      0.00000000
     30.06450000	     -5.40491929	     -4.76350138	      0.13940580	      1.01704872	      0.93596438	      0.38696370	     40.30232649	     -5.69628497	     -8.20290017	     58.52897349	     58.52897349	     -3.04115619	    -15.81672381	      1.98166513	     10.22964319	     -4.64271694	     -8.42949589	     16.58554941	     16.58554941	     13.51418750	    -11.42811253	      1.67148122	    -13.88248917	      5.29008746	      2.69717611	     -0.92268201	    -13.49652562	     -9.82987097	     26.11463749	     46.64433487	      0.00000000	      0.00000000	     10.23766472	    -14.00110090	     -9.18367155	     85.38304634	     47.69766939	      0.00000000	      0.00000000
     30.07657143	     -5.66916241	     -4.77367977	      0.18361134	      1.01669825	      0.93556744	      0.38682057	     40.59645574	     -5.48229233	     -8.76654907	     55.03600542	     55.03600542	     -2.81949080	    -14.99048208	      2.15319872	      9.82164270	     -4.61457756	     -8.45048336	     16.16740076	     16.16740076	     13.71654124	    -11.21501619	      1.58574318	    -13.70519383	      5.38292131	      2.37376914	     -1.72193678	    -13.58421061	     -9.93288807	     25.72348010	     46.66223238	      0.00000000	      0.00000000	     11.11601872	    -14.38480817	     -9.43773327	     86.36325726	     47.74122030	      0.00000000	      0.00000000
     30.08864286	     -5.63011070	     -4.75095053	      0.23376074	      1.01679676	      0.93547735	      0.38673732	     40.25766057	     -5.30624691	     -9.41674543	     51.07946363	     51.07946363	     -2.54990137	    -13.70109332	      1.90438083	      8.95213298	     -4.56779794	     -8.62514154	     15.57328066	     15.57328066	     13.93214528	    -10.70165440	      1.36990280	    -13.92232562	      5.41399960	      2.40090024	     -2.66393089	    -13.78615793	    -10.19337376	     25.30670967	     46.69279007	      0.00000000	      0.00000000	     11.70028436	    -14.31200294	     -9.54514631	     88.58415868	     47.80245267	      0.00000000	      0.00000000
